<svg width="158" height="152" viewBox="0 0 158 152" fill="none" xmlns="http://www.w3.org/2000/svg">
<circle cx="10" cy="4" r="4" fill="#8388E4" fill-opacity="0.3"/>
<circle cx="28" cy="4" r="4" fill="#8388E4" fill-opacity="0.3"/>
<circle cx="46" cy="4" r="4" fill="#8388E4" fill-opacity="0.3"/>
<circle cx="64" cy="4" r="4" fill="#8388E4" fill-opacity="0.3"/>
<circle cx="82" cy="4" r="4" fill="#8388E4" fill-opacity="0.3"/>
<circle cx="100" cy="4" r="4" fill="#8388E4" fill-opacity="0.3"/>
<circle cx="118" cy="4" r="4" fill="#8388E4" fill-opacity="0.3"/>
<circle cx="136" cy="4" r="4" fill="#8388E4" fill-opacity="0.3"/>
<circle cx="154" cy="4" r="4" fill="#8388E4" fill-opacity="0.3"/>
<circle cx="10" cy="22" r="4" fill="#8388E4" fill-opacity="0.3"/>
<circle cx="28" cy="22" r="4" fill="#8388E4" fill-opacity="0.3"/>
<circle cx="46" cy="22" r="4" fill="#8388E4" fill-opacity="0.3"/>
<circle cx="64" cy="22" r="4" fill="#8388E4" fill-opacity="0.3"/>
<circle cx="82" cy="22" r="4" fill="#8388E4" fill-opacity="0.3"/>
<circle cx="100" cy="22" r="4" fill="#8388E4" fill-opacity="0.3"/>
<circle cx="118" cy="22" r="4" fill="#8388E4" fill-opacity="0.3"/>
<circle cx="136" cy="22" r="4" fill="#8388E4" fill-opacity="0.3"/>
<circle cx="154" cy="22" r="4" fill="#8388E4" fill-opacity="0.3"/>
<circle cx="10" cy="40" r="4" fill="#8388E4" fill-opacity="0.3"/>
<circle cx="28" cy="40" r="4" fill="#8388E4" fill-opacity="0.3"/>
<circle cx="46" cy="40" r="4" fill="#8388E4" fill-opacity="0.3"/>
<circle cx="64" cy="40" r="4" fill="#8388E4" fill-opacity="0.3"/>
<circle cx="82" cy="40" r="4" fill="#8388E4" fill-opacity="0.3"/>
<circle cx="100" cy="40" r="4" fill="#8388E4" fill-opacity="0.3"/>
<circle cx="118" cy="40" r="4" fill="#8388E4" fill-opacity="0.3"/>
<circle cx="136" cy="40" r="4" fill="#8388E4" fill-opacity="0.3"/>
<circle cx="154" cy="40" r="4" fill="#8388E4" fill-opacity="0.3"/>
<circle cx="10" cy="58" r="4" fill="#8388E4" fill-opacity="0.3"/>
<circle cx="28" cy="58" r="4" fill="#8388E4" fill-opacity="0.3"/>
<circle cx="46" cy="58" r="4" fill="#8388E4" fill-opacity="0.3"/>
<circle cx="64" cy="58" r="4" fill="#8388E4" fill-opacity="0.3"/>
<circle cx="82" cy="58" r="4" fill="#8388E4" fill-opacity="0.3"/>
<circle cx="100" cy="58" r="4" fill="#8388E4" fill-opacity="0.3"/>
<circle cx="118" cy="58" r="4" fill="#8388E4" fill-opacity="0.3"/>
<circle cx="136" cy="58" r="4" fill="#8388E4" fill-opacity="0.3"/>
<circle cx="154" cy="58" r="4" fill="#8388E4" fill-opacity="0.3"/>
<circle cx="10" cy="76" r="4" fill="#8388E4" fill-opacity="0.3"/>
<circle cx="28" cy="76" r="4" fill="#8388E4" fill-opacity="0.3"/>
<circle cx="46" cy="76" r="4" fill="#8388E4" fill-opacity="0.3"/>
<circle cx="64" cy="76" r="4" fill="#8388E4" fill-opacity="0.3"/>
<circle cx="82" cy="76" r="4" fill="#8388E4" fill-opacity="0.3"/>
<circle cx="100" cy="76" r="4" fill="#8388E4" fill-opacity="0.3"/>
<circle cx="118" cy="76" r="4" fill="#8388E4" fill-opacity="0.3"/>
<circle cx="136" cy="76" r="4" fill="#8388E4" fill-opacity="0.3"/>
<circle cx="154" cy="76" r="4" fill="#8388E4" fill-opacity="0.3"/>
<circle cx="10" cy="94" r="4" fill="#8388E4" fill-opacity="0.3"/>
<circle cx="28" cy="94" r="4" fill="#8388E4" fill-opacity="0.3"/>
<circle cx="46" cy="94" r="4" fill="#8388E4" fill-opacity="0.3"/>
<circle cx="64" cy="94" r="4" fill="#8388E4" fill-opacity="0.3"/>
<circle cx="82" cy="94" r="4" fill="#8388E4" fill-opacity="0.3"/>
<circle cx="100" cy="94" r="4" fill="#8388E4" fill-opacity="0.3"/>
<circle cx="118" cy="94" r="4" fill="#8388E4" fill-opacity="0.3"/>
<circle cx="136" cy="94" r="4" fill="#8388E4" fill-opacity="0.3"/>
<circle cx="154" cy="94" r="4" fill="#8388E4" fill-opacity="0.3"/>
<circle cx="10" cy="112" r="4" fill="#8388E4" fill-opacity="0.3"/>
<circle cx="28" cy="112" r="4" fill="#8388E4" fill-opacity="0.3"/>
<circle cx="46" cy="112" r="4" fill="#8388E4" fill-opacity="0.3"/>
<circle cx="64" cy="112" r="4" fill="#8388E4" fill-opacity="0.3"/>
<circle cx="82" cy="112" r="4" fill="#8388E4" fill-opacity="0.3"/>
<circle cx="100" cy="112" r="4" fill="#8388E4" fill-opacity="0.3"/>
<circle cx="118" cy="112" r="4" fill="#8388E4" fill-opacity="0.3"/>
<circle cx="136" cy="112" r="4" fill="#8388E4" fill-opacity="0.3"/>
<circle cx="154" cy="112" r="4" fill="#8388E4" fill-opacity="0.3"/>
<circle cx="10" cy="130" r="4" fill="#8388E4" fill-opacity="0.3"/>
<circle cx="28" cy="130" r="4" fill="#8388E4" fill-opacity="0.3"/>
<circle cx="46" cy="130" r="4" fill="#8388E4" fill-opacity="0.3"/>
<circle cx="64" cy="130" r="4" fill="#8388E4" fill-opacity="0.3"/>
<circle cx="82" cy="130" r="4" fill="#8388E4" fill-opacity="0.3"/>
<circle cx="100" cy="130" r="4" fill="#8388E4" fill-opacity="0.3"/>
<circle cx="118" cy="130" r="4" fill="#8388E4" fill-opacity="0.3"/>
<circle cx="136" cy="130" r="4" fill="#8388E4" fill-opacity="0.3"/>
<circle cx="154" cy="130" r="4" fill="#8388E4" fill-opacity="0.3"/>
<circle cx="10" cy="148" r="4" fill="#8388E4" fill-opacity="0.3"/>
<circle cx="28" cy="148" r="4" fill="#8388E4" fill-opacity="0.3"/>
<circle cx="46" cy="148" r="4" fill="#8388E4" fill-opacity="0.3"/>
<circle cx="64" cy="148" r="4" fill="#8388E4" fill-opacity="0.3"/>
<circle cx="82" cy="148" r="4" fill="#8388E4" fill-opacity="0.3"/>
<circle cx="100" cy="148" r="4" fill="#8388E4" fill-opacity="0.3"/>
<circle cx="118" cy="148" r="4" fill="#8388E4" fill-opacity="0.3"/>
<circle cx="136" cy="148" r="4" fill="#8388E4" fill-opacity="0.3"/>
<circle cx="154" cy="148" r="4" fill="#8388E4" fill-opacity="0.3"/>
</svg>
